<svg width="42" height="42" viewBox="0 0 42 42" fill="none" xmlns="http://www.w3.org/2000/svg">
<path d="M30 16 L30 26 L34 26 L34 16 L30 16  M29 16 L29 26 L25 26 L25 16 L29 16  M19 26 L24 16 L21 14 L16 24 L19 26  M9.29248 8.75H4.04248M9.71248 8.75L13.4925 22.47C13.808 23.5519 14.4633 24.5036 15.3615 25.1844C16.2596 25.8651 17.353 26.2387 18.48 26.25H33.775V8.75H9.71248ZM21.5425 32.375C21.5425 33.8247 20.3672 35 18.9175 35C17.4677 35 16.2925 33.8247 16.2925 32.375C16.2925 30.9253 17.4677 29.75 18.9175 29.75C20.3672 29.75 21.5425 30.9253 21.5425 32.375ZM33.7925 32.375C33.7925 33.8247 32.6172 35 31.1675 35C29.7177 35 28.5425 33.8247 28.5425 32.375C28.5425 30.9253 29.7177 29.75 31.1675 29.75C32.6172 29.75 33.7925 30.9253 33.7925 32.375Z" stroke="#fff" stroke-width="1.5" stroke-linecap="round" stroke-linejoin="round"/>
</svg>
