<svg width="42" height="42" viewBox="0 0 42 42" fill="none" xmlns="http://www.w3.org/2000/svg">
<path d="M21 34.65C21 34.65 36.75 27.1075 36.75 15.645C36.7364 13.772 36.0879 11.9591 34.9106 10.5023C33.7333 9.04559 32.0968 8.03118 30.2684 7.62487C28.44 7.21856 26.5278 7.44436 24.8443 8.26538C23.1609 9.0864 21.8056 10.4541 21 12.145C20.1944 10.4541 18.8391 9.0864 17.1557 8.26538C15.4722 7.44436 13.56 7.21856 11.7316 7.62487C9.90324 8.03118 8.26668 9.04559 7.08937 10.5023C5.91207 11.9591 5.26364 13.772 5.25 15.645C5.25 27.1075 21 34.65 21 34.65Z" stroke="#fff" stroke-width="1.5" stroke-linecap="round" stroke-linejoin="round"/>
</svg>
