<svg width="42" height="42" viewBox="0 0 42 42" fill="none" xmlns="http://www.w3.org/2000/svg">
<path d="M13.4 33H29C30.1046 33 31 32.1046 31 31V28.2H13.4C12.0745 28.2 11 29.2745 11 30.6C11 31.9255 12.0745 33 13.4 33Z"/>
<path d="M11 30.6C11 29.2745 12.0745 28.2 13.4 28.2H31V31C31 32.1046 30.1046 33 29 33H13.4C12.0745 33 11 31.9255 11 30.6ZM11 30.6V11C11 9.89543 11.8954 9 13 9H29C30.1046 9 31 9.89543 31 11V28.1906M17 21H25M16 17H26" stroke="#fff" stroke-width="1.5" stroke-linecap="round" stroke-linejoin="round"/>
</svg>
