<svg width="42" height="42" viewBox="0 0 42 42" fill="none" xmlns="http://www.w3.org/2000/svg">
<path d="M20.3174 20.8075C24.1834 20.8075 27.3174 17.6735 27.3174 13.8075C27.3174 9.9415 24.1834 6.8075 20.3174 6.8075C16.4515 6.8075 13.3174 9.9415 13.3174 13.8075C13.3174 17.6735 16.4515 20.8075 20.3174 20.8075Z" stroke="#fff" stroke-width="1.5" stroke-linecap="round" stroke-linejoin="round"/>
<path d="M28.28 35.14C29.1988 35.1203 30.0964 34.8598 30.883 34.3845C31.6696 33.9092 32.3176 33.2357 32.7623 32.4314C33.207 31.627 33.4327 30.7201 33.4169 29.8012C33.4012 28.8823 33.1444 27.9836 32.6725 27.195C31.4268 25.2288 29.7044 23.6095 27.6652 22.4874C25.626 21.3653 23.3363 20.7769 21.0087 20.7769C18.6812 20.7769 16.3914 21.3653 14.3523 22.4874C12.3131 23.6095 10.5906 25.2288 9.34498 27.195C8.87299 27.9836 8.61626 28.8823 8.6005 29.8012C8.58475 30.7201 8.81048 31.627 9.25515 32.4314C9.69983 33.2357 10.3479 33.9092 11.1344 34.3845C11.921 34.8598 12.8186 35.1203 13.7374 35.14H28.28Z" stroke="#fff" stroke-width="1.5" stroke-linecap="round" stroke-linejoin="round"/>
</svg>
